<?xml version="1.0" encoding="utf-8"?>
<!-- Generator: Adobe Illustrator 23.1.0, SVG Export Plug-In . SVG Version: 6.00 Build 0)  -->
<svg version="1.1" id="Layer_1" xmlns="http://www.w3.org/2000/svg" xmlns:xlink="http://www.w3.org/1999/xlink" x="0px" y="0px"
	 viewBox="0 0 500 200" style="enable-background:new 0 0 500 200;" xml:space="preserve">
<style type="text/css">
	.st0{fill:#F50B0B;}
	.st1{fill:#3E495B;}
	.st2{fill:#FF1F1F;}
	.st3{fill:#5B5B5B;}
</style>
<g>
	<g>
		<g>
			<path class="st0" d="M177.94,157.67c-1.91,0.88-3.77,1.53-5.57,1.92c-1.8,0.4-3.77,0.6-5.89,0.6c-5.82,0-10.37-1.7-13.67-5.11
				c-3.29-3.41-4.94-8.05-4.94-13.94c0-6.01,1.82-10.9,5.45-14.65s8.4-5.63,14.29-5.63c1.89,0,3.63,0.16,5.21,0.46
				s3.22,0.81,4.92,1.5l-2.04,5.15c-1.34-0.55-2.65-0.95-3.91-1.19c-1.27-0.25-2.63-0.37-4.1-0.37c-3.86,0-7.02,1.28-9.49,3.85
				c-2.47,2.57-3.7,6.05-3.7,10.45c0,4.3,1.14,7.69,3.42,10.18c2.28,2.49,5.34,3.73,9.18,3.73c1.26,0,2.6-0.16,4.03-0.48
				c1.43-0.32,2.91-0.84,4.43-1.57L177.94,157.67z"/>
			<path class="st0" d="M195.43,160.19c-4.25,0-7.61-1.27-10.1-3.81c-2.49-2.54-3.73-5.94-3.73-10.2c0.02-4.51,1.31-8.04,3.87-10.6
				c2.56-2.56,6.06-3.83,10.48-3.83c4.26-0.02,7.59,1.23,9.99,3.75c2.4,2.52,3.6,5.93,3.6,10.23c0,4.42-1.27,7.94-3.81,10.55
				C203.2,158.88,199.76,160.19,195.43,160.19z M195.72,155.28c2.46,0,4.33-0.8,5.61-2.41c1.28-1.61,1.92-3.94,1.92-6.98
				c0-3.01-0.65-5.3-1.94-6.87s-3.17-2.36-5.63-2.36c-2.42,0-4.33,0.83-5.72,2.49c-1.39,1.66-2.08,3.96-2.08,6.9
				c0,2.95,0.69,5.23,2.07,6.83C191.34,154.48,193.26,155.28,195.72,155.28z"/>
			<path class="st0" d="M240.03,159.55h-6.16v-15.31c0-2.53-0.46-4.43-1.38-5.69c-0.92-1.26-2.3-1.9-4.14-1.9
				c-1.84,0-3.36,0.7-4.56,2.1c-1.2,1.4-1.8,3.17-1.8,5.31v15.5h-6.18v-27.17h6.18v4.4h0.11c1.01-1.68,2.25-2.94,3.71-3.78
				c1.47-0.84,3.17-1.26,5.12-1.26c2.97,0,5.23,0.95,6.78,2.84s2.32,4.68,2.32,8.36V159.55z"/>
			<path class="st0" d="M244.89,157.38l2.68-4.35c1.06,0.74,2.19,1.34,3.38,1.79s2.49,0.68,3.89,0.68c1.52,0,2.7-0.28,3.54-0.84
				c0.84-0.56,1.26-1.39,1.26-2.51c0-0.88-0.35-1.62-1.05-2.22c-0.7-0.59-1.89-1.08-3.57-1.47c-3.4-0.8-5.78-1.85-7.15-3.16
				c-1.37-1.31-2.06-3.03-2.06-5.17c0-2.46,0.96-4.47,2.87-6.04c1.91-1.57,4.41-2.35,7.51-2.35c1.54,0,3.01,0.2,4.4,0.6
				s2.76,1.03,4.09,1.9l-2.5,4.25c-1.17-0.74-2.24-1.27-3.21-1.59c-0.97-0.32-1.97-0.48-3-0.48c-1.45,0-2.58,0.27-3.38,0.81
				c-0.8,0.54-1.21,1.29-1.21,2.24c0,1.01,0.41,1.76,1.23,2.24c0.82,0.49,2.21,0.96,4.15,1.42c2.94,0.71,5.08,1.73,6.45,3.06
				c1.36,1.34,2.04,3.12,2.04,5.35c0,2.64-0.96,4.74-2.88,6.3c-1.92,1.57-4.51,2.35-7.79,2.35c-1.77,0-3.46-0.23-5.08-0.7
				C247.9,159.02,246.36,158.31,244.89,157.38z"/>
			<path class="st0" d="M285.75,159.18c-0.8,0.34-1.63,0.58-2.49,0.74c-0.87,0.16-1.79,0.24-2.79,0.24c-2.51,0-4.44-0.67-5.8-2
				c-1.35-1.34-2.03-3.33-2.03-5.98v-14.96h-4.56v-4.83h4.56v-6.61l6.16-1.86v8.46h6.5v4.83h-6.5v14.46c0,1.33,0.24,2.28,0.73,2.87
				c0.49,0.58,1.24,0.88,2.27,0.88c0.5,0,0.97-0.06,1.42-0.17c0.45-0.12,0.85-0.26,1.21-0.44L285.75,159.18z"/>
			<path class="st0" d="M305.71,137.55c-0.34-0.09-0.66-0.15-0.97-0.2c-0.31-0.04-0.67-0.07-1.08-0.07c-2.21,0-3.91,0.81-5.09,2.44
				c-1.18,1.63-1.78,3.75-1.78,6.37v13.45h-6.18v-27.17h6.18v5.23h0.11c0.64-1.87,1.57-3.29,2.81-4.26c1.24-0.96,2.7-1.45,4.38-1.45
				c0.48,0,0.91,0.03,1.29,0.08c0.38,0.05,0.75,0.13,1.1,0.24L305.71,137.55z"/>
			<path class="st0" d="M334.42,159.55h-6.18v-4.22h-0.11c-0.96,1.61-2.13,2.82-3.53,3.63c-1.4,0.81-3.01,1.22-4.83,1.22
				c-3.18,0-5.58-0.96-7.18-2.87c-1.6-1.91-2.4-4.79-2.4-8.62v-16.32h6.13v15.6c0,2.42,0.47,4.25,1.42,5.47s2.37,1.83,4.26,1.83
				c1.84,0,3.34-0.66,4.5-1.99c1.16-1.33,1.74-3.1,1.74-5.31v-15.6h6.18V159.55z"/>
			<path class="st0" d="M362.75,157.88c-1.34,0.81-2.68,1.4-4.01,1.76c-1.33,0.36-2.77,0.54-4.33,0.54c-4.17,0-7.51-1.22-10.02-3.66
				c-2.5-2.44-3.75-5.76-3.75-9.95c0-4.51,1.29-8.11,3.89-10.8c2.59-2.69,6.09-4.03,10.49-4.03c1.54,0,2.94,0.16,4.21,0.49
				c1.26,0.33,2.55,0.86,3.86,1.61l-2.41,4.3c-0.92-0.51-1.82-0.89-2.71-1.13c-0.88-0.24-1.85-0.36-2.89-0.36
				c-2.6,0-4.61,0.86-6.02,2.57c-1.42,1.72-2.12,3.99-2.12,6.82c0,2.97,0.76,5.25,2.29,6.85s3.45,2.39,5.77,2.39
				c0.71,0,1.52-0.13,2.44-0.38c0.92-0.26,1.85-0.67,2.79-1.23L362.75,157.88z"/>
			<path class="st0" d="M382.76,159.18c-0.8,0.34-1.63,0.58-2.49,0.74c-0.87,0.16-1.79,0.24-2.79,0.24c-2.51,0-4.44-0.67-5.8-2
				c-1.35-1.34-2.03-3.33-2.03-5.98v-14.96h-4.56v-4.83h4.56v-6.61l6.16-1.86v8.46h6.5v4.83h-6.5v14.46c0,1.33,0.24,2.28,0.73,2.87
				c0.49,0.58,1.24,0.88,2.27,0.88c0.5,0,0.97-0.06,1.42-0.17c0.45-0.12,0.85-0.26,1.21-0.44L382.76,159.18z"/>
			<path class="st0" d="M390.72,127.13c-1.13,0-2.07-0.36-2.81-1.09s-1.11-1.62-1.11-2.68c0-1.1,0.37-2,1.11-2.71
				c0.74-0.71,1.68-1.06,2.81-1.06c1.15,0,2.1,0.35,2.84,1.06c0.74,0.71,1.12,1.61,1.12,2.71c0,1.08-0.37,1.98-1.12,2.69
				C392.82,126.77,391.87,127.13,390.72,127.13z M393.77,159.55h-6.18v-27.17h6.18V159.55z"/>
			<path class="st0" d="M413.86,160.19c-4.25,0-7.61-1.27-10.1-3.81c-2.49-2.54-3.73-5.94-3.73-10.2c0.02-4.51,1.31-8.04,3.87-10.6
				c2.56-2.56,6.06-3.83,10.48-3.83c4.26-0.02,7.59,1.23,9.99,3.75c2.4,2.52,3.6,5.93,3.6,10.23c0,4.42-1.27,7.94-3.81,10.55
				C421.63,158.88,418.19,160.19,413.86,160.19z M414.15,155.28c2.46,0,4.33-0.8,5.61-2.41s1.92-3.94,1.92-6.98
				c0-3.01-0.65-5.3-1.94-6.87c-1.29-1.57-3.17-2.36-5.63-2.36c-2.42,0-4.33,0.83-5.72,2.49c-1.39,1.66-2.08,3.96-2.08,6.9
				c0,2.95,0.69,5.23,2.07,6.83C409.77,154.48,411.69,155.28,414.15,155.28z"/>
			<path class="st0" d="M458.46,159.55h-6.16v-15.31c0-2.53-0.46-4.43-1.38-5.69s-2.3-1.9-4.14-1.9s-3.36,0.7-4.56,2.1
				s-1.8,3.17-1.8,5.31v15.5h-6.18v-27.17h6.18v4.4h0.11c1.01-1.68,2.25-2.94,3.71-3.78c1.47-0.84,3.18-1.26,5.12-1.26
				c2.97,0,5.23,0.95,6.78,2.84c1.55,1.89,2.32,4.68,2.32,8.36V159.55z"/>
			<path class="st0" d="M463.32,157.38l2.68-4.35c1.06,0.74,2.19,1.34,3.38,1.79c1.19,0.45,2.49,0.68,3.89,0.68
				c1.52,0,2.7-0.28,3.54-0.84c0.84-0.56,1.26-1.39,1.26-2.51c0-0.88-0.35-1.62-1.05-2.22c-0.7-0.59-1.89-1.08-3.57-1.47
				c-3.4-0.8-5.78-1.85-7.15-3.16c-1.37-1.31-2.06-3.03-2.06-5.17c0-2.46,0.96-4.47,2.87-6.04c1.91-1.57,4.41-2.35,7.51-2.35
				c1.54,0,3.01,0.2,4.4,0.6s2.76,1.03,4.09,1.9l-2.5,4.25c-1.17-0.74-2.24-1.27-3.21-1.59c-0.97-0.32-1.97-0.48-3-0.48
				c-1.45,0-2.58,0.27-3.38,0.81c-0.8,0.54-1.21,1.29-1.21,2.24c0,1.01,0.41,1.76,1.23,2.24c0.82,0.49,2.21,0.96,4.15,1.42
				c2.94,0.71,5.08,1.73,6.45,3.06c1.36,1.34,2.04,3.12,2.04,5.35c0,2.64-0.96,4.74-2.88,6.3c-1.92,1.57-4.51,2.35-7.79,2.35
				c-1.77,0-3.46-0.23-5.08-0.7C466.33,159.02,464.79,158.31,463.32,157.38z"/>
		</g>
	</g>
	<g>
		<path class="st1" d="M112.39,114.54L74.72,45.56L12.45,159.55h124.53L112.39,114.54z M35.82,145.69l38.89-71.2l38.89,71.2H35.82z"
			/>
		<g>
			<path class="st2" d="M126.61,110.96c-5.96,14.38-17.73,25.76-32.37,31.21l-19.53-35.76l-19.53,35.76
				c-9.41-3.51-17.64-9.46-23.9-17.1l-0.01,0.03C27.9,121,25.1,116.41,23,111.46l0.02-0.03c-2.86-6.73-4.44-14.13-4.44-21.89
				c0-30.96,25.19-56.14,56.14-56.14c23.38,0,43.46,14.36,51.9,34.73l8.07-14.67c-12.27-20.31-34.56-33.92-59.97-33.92
				c-38.6,0-70.01,31.41-70.01,70.01c0,13.38,3.77,25.89,10.31,36.53l0.01-0.02c2.64,4.3,5.74,8.3,9.21,11.92l-0.01,0.02
				c12.75,13.28,30.67,21.56,50.49,21.56c25.41,0,47.7-13.61,59.97-33.92L126.61,110.96z"/>
		</g>
	</g>
	<g>
		<g>
			<path class="st3" d="M123.14,102.55l14.22-38.05h7.32l14.12,38.05h-7.11l-3.18-9.1h-15.2l-3.1,9.1H123.14z M134.98,88.17h11.78
				l-5.2-15.02c-0.12-0.39-0.23-0.78-0.33-1.18c-0.1-0.4-0.19-0.89-0.28-1.47h-0.16c-0.09,0.51-0.18,0.98-0.28,1.39
				c-0.1,0.42-0.21,0.82-0.33,1.21L134.98,88.17z"/>
			<path class="st3" d="M189.24,99.93c0,4.79-1.34,8.56-4.02,11.3c-2.68,2.74-6.49,4.11-11.42,4.11c-1.98,0-3.81-0.19-5.48-0.57
				c-1.67-0.38-3.37-0.98-5.08-1.79l2.04-4.48c1.43,0.67,2.82,1.16,4.15,1.46c1.34,0.3,2.81,0.45,4.42,0.45
				c2.87,0,5.09-0.83,6.69-2.49c1.59-1.66,2.39-4.02,2.39-7.06v-2.68h-0.13c-1.01,1.68-2.28,2.94-3.82,3.78
				c-1.54,0.84-3.32,1.26-5.33,1.26c-3.5,0-6.3-1.25-8.4-3.74c-2.1-2.49-3.14-5.83-3.14-10c0-4.63,1.16-8.36,3.48-11.18
				c2.32-2.82,5.39-4.23,9.21-4.23c1.8,0,3.37,0.35,4.71,1.05c1.34,0.7,2.44,1.76,3.3,3.2h0.13v-3.58h6.32V99.93z M182.95,89.63
				v-3.26c0-2.02-0.64-3.74-1.92-5.16c-1.28-1.42-2.91-2.14-4.9-2.14c-2.37,0-4.23,0.86-5.59,2.57c-1.35,1.72-2.03,4.23-2.03,7.54
				c0,2.85,0.63,5.06,1.9,6.65c1.26,1.58,3.01,2.38,5.24,2.38c2.18,0,3.94-0.8,5.28-2.39C182.28,94.22,182.95,92.16,182.95,89.63z"
				/>
			<path class="st3" d="M200.89,69.81c-1.15,0-2.1-0.36-2.85-1.09c-0.75-0.73-1.13-1.62-1.13-2.68c0-1.11,0.38-2.03,1.13-2.73
				s1.7-1.06,2.85-1.06s2.1,0.35,2.87,1.06c0.76,0.71,1.14,1.62,1.14,2.73c0,1.08-0.38,1.98-1.14,2.69
				C202.99,69.45,202.04,69.81,200.89,69.81z M203.99,102.55h-6.31V74.72h6.31V102.55z"/>
			<path class="st3" d="M212.83,102.55V62.33h6.31v40.23H212.83z"/>
			<path class="st3" d="M251.22,90.27h-19c0.12,2.64,0.89,4.64,2.3,6.02c1.41,1.38,3.39,2.07,5.96,2.07c1.01,0,2.18-0.21,3.52-0.62
				c1.34-0.42,2.67-1.09,3.99-2.03l2.81,3.95c-1.75,1.24-3.52,2.14-5.31,2.71c-1.79,0.57-3.75,0.85-5.89,0.85
				c-4.32,0-7.68-1.25-10.08-3.74c-2.41-2.49-3.62-5.99-3.64-10.48c0-4.46,1.25-8.06,3.74-10.81c2.49-2.75,5.69-4.13,9.58-4.13
				c3.75,0,6.69,1.17,8.82,3.52c2.13,2.34,3.2,5.67,3.2,9.96V90.27z M245.17,85.92c-0.02-2.39-0.55-4.19-1.59-5.41
				c-1.04-1.22-2.52-1.83-4.43-1.83c-1.8,0-3.33,0.65-4.59,1.96c-1.26,1.31-2.03,3.07-2.31,5.28H245.17z"/>
		</g>
	</g>
</g>
</svg>
