<?xml version="1.0" encoding="utf-8"?>
<!-- Generator: Adobe Illustrator 23.1.0, SVG Export Plug-In . SVG Version: 6.00 Build 0)  -->
<svg version="1.1" xmlns="http://www.w3.org/2000/svg" xmlns:xlink="http://www.w3.org/1999/xlink" x="0px" y="0px"
	 viewBox="0 0 500 500" style="enable-background:new 0 0 500 500;" xml:space="preserve">
<style type="text/css">
	.st0{fill:#D31313;}
	.st1{font-family:'SegoeUI-Bold';}
	.st2{font-size:48px;}
	.st3{fill:#FFFFFF;}
	.st4{fill:#FF2424;}
	.st5{fill:#FCFCFC;}
</style>
<g id="BACKGROUND">
	<text transform="matrix(1 0 0 1 171.3284 291.9015)" class="st0 st1 st2">Constructions</text>
</g>
<g id="OBJECTS">
	<path class="st3" d="M142,252.14l-33.28-60.93l-55,100.69h109.99L142,252.14z M74.37,279.66l34.35-62.89l34.35,62.89H74.37z"/>
	<g>
		<path class="st4" d="M154.56,248.98c-5.26,12.7-15.66,22.76-28.59,27.57l-17.25-31.58l-17.25,31.59
			c-8.31-3.1-15.58-8.36-21.11-15.1l-0.01,0.02c-2.97-3.63-5.45-7.68-7.31-12.05l0.01-0.03c-2.53-5.94-3.92-12.48-3.92-19.33
			c0-27.35,22.25-49.59,49.59-49.59c20.65,0,38.39,12.69,45.84,30.68l7.13-12.96c-10.84-17.94-30.53-29.96-52.97-29.96
			c-34.1,0-61.84,27.74-61.84,61.84c0,11.82,3.33,22.87,9.11,32.27l0.01-0.02c2.33,3.8,5.07,7.33,8.14,10.53l-0.01,0.02
			c11.26,11.73,27.09,19.04,44.59,19.04c22.44,0,42.13-12.02,52.97-29.96L154.56,248.98z"/>
	</g>
	<g>
		<g>
			<path class="st5" d="M151.49,241.56l12.56-33.61h6.47l12.47,33.61h-6.28l-2.81-8.04h-13.43l-2.74,8.04H151.49z M161.95,228.85
				h10.41l-4.59-13.27c-0.11-0.34-0.21-0.69-0.29-1.04s-0.17-0.79-0.25-1.3h-0.14c-0.08,0.45-0.16,0.86-0.25,1.23
				s-0.18,0.72-0.29,1.07L161.95,228.85z"/>
			<path class="st5" d="M209.88,239.24c0,4.23-1.18,7.56-3.55,9.98s-5.73,3.63-10.09,3.63c-1.75,0-3.36-0.17-4.84-0.5
				s-2.97-0.86-4.49-1.58l1.8-3.96c1.27,0.59,2.49,1.02,3.67,1.29s2.48,0.4,3.9,0.4c2.53,0,4.5-0.73,5.91-2.2s2.11-3.55,2.11-6.23
				v-2.37h-0.12c-0.89,1.48-2.02,2.6-3.38,3.34s-2.93,1.11-4.71,1.11c-3.09,0-5.57-1.1-7.42-3.3s-2.78-5.15-2.78-8.84
				c0-4.09,1.02-7.39,3.07-9.88s4.76-3.74,8.13-3.74c1.59,0,2.98,0.31,4.16,0.93s2.15,1.56,2.92,2.82h0.12v-3.16h5.58V239.24z
				 M204.32,230.14v-2.88c0-1.78-0.57-3.3-1.7-4.56s-2.57-1.89-4.32-1.89c-2.09,0-3.74,0.76-4.93,2.27s-1.79,3.73-1.79,6.66
				c0,2.52,0.56,4.47,1.68,5.87s2.66,2.1,4.63,2.1c1.92,0,3.48-0.7,4.66-2.11S204.32,232.38,204.32,230.14z"/>
			<path class="st5" d="M220.17,212.64c-1.02,0-1.86-0.32-2.52-0.96s-1-1.43-1-2.37c0-0.98,0.33-1.79,1-2.41s1.5-0.94,2.52-0.94
				s1.86,0.31,2.53,0.94s1.01,1.43,1.01,2.41c0,0.95-0.34,1.75-1.01,2.38S221.18,212.64,220.17,212.64z M222.91,241.56h-5.58v-24.59
				h5.58V241.56z"/>
			<path class="st5" d="M230.71,241.56v-35.53h5.58v35.53H230.71z"/>
			<path class="st5" d="M264.63,230.71h-16.78c0.11,2.33,0.79,4.1,2.03,5.32c1.24,1.22,3,1.83,5.26,1.83c0.89,0,1.93-0.18,3.11-0.55
				s2.36-0.96,3.53-1.79l2.48,3.49c-1.55,1.09-3.11,1.89-4.69,2.39s-3.31,0.75-5.2,0.75c-3.81,0-6.78-1.1-8.91-3.3
				s-3.2-5.29-3.21-9.26c0-3.94,1.1-7.12,3.3-9.55s5.02-3.64,8.46-3.64c3.31,0,5.91,1.04,7.79,3.11s2.82,5,2.82,8.8V230.71z
				 M259.28,226.86c-0.02-2.11-0.48-3.7-1.41-4.78s-2.23-1.62-3.91-1.62c-1.59,0-2.95,0.58-4.05,1.73
				c-1.11,1.16-1.79,2.71-2.04,4.66H259.28z"/>
		</g>
	</g>
</g>
</svg>
